<?xml version="1.0" encoding="utf-8"?>
<!-- Svg Vector Icons : http://www.sfont.cn -->
<!DOCTYPE svg PUBLIC "-//W3C//DTD SVG 1.1//EN" "http://www.w3.org/Graphics/SVG/1.1/DTD/svg11.dtd">
<svg version="1.1" xmlns="http://www.w3.org/2000/svg" xmlns:xlink="http://www.w3.org/1999/xlink" x="0px" y="0px" viewBox="0 0 1000 1000" enable-background="new 0 0 1000 1000" xml:space="preserve">
<metadata> Svg Vector Icons : http://www.sfont.cn </metadata>
<g><g><path d="M316.3,71.3h-245v245h245V71.3z M377.5,10L377.5,10v367.5H10V10H377.5z M132.5,132.5H255V255H132.5V132.5z M928.8,71.3h-245v245h245V71.3z M990,10L990,10v367.5H622.5V10H990z M745,132.5h122.5V255H745V132.5z M316.3,683.8h-245v245h245V683.8z M377.5,622.5L377.5,622.5V990H10V622.5H377.5z M132.5,745H255v122.5H132.5V745z M438.8,10H500v61.3h-61.3V10z M500,71.3h61.3v61.3H500V71.3z M438.8,132.5H500v61.3h-61.3V132.5z M500,193.8h61.3V255H500V193.8z M438.8,255H500v61.3h-61.3V255z M500,316.3h61.3v61.3H500V316.3z M438.8,377.5H500v61.3h-61.3V377.5z M438.8,500H500v61.3h-61.3V500z M500,561.3h61.3v61.3H500V561.3z M438.8,622.5H500v61.3h-61.3V622.5z M500,683.8h61.3V745H500V683.8z M438.8,745H500v61.3h-61.3V745z M500,806.3h61.3v61.3H500V806.3z M438.8,867.5H500v61.3h-61.3V867.5z M500,928.8h61.3V990H500V928.8z M928.8,500H990v61.3h-61.3V500z M71.3,500h61.3v61.3H71.3V500z M132.5,438.8h61.3V500h-61.3V438.8z M10,438.8h61.3V500H10V438.8z M255,438.8h61.3V500H255V438.8z M316.3,500h61.3v61.3h-61.3V500z M377.5,438.8h61.3V500h-61.3V438.8z M561.3,500h61.3v61.3h-61.3V500z M622.5,438.8h61.3V500h-61.3V438.8z M683.8,500H745v61.3h-61.3V500z M745,438.8h61.3V500H745V438.8z M806.3,500h61.3v61.3h-61.3V500z M867.5,438.8h61.3V500h-61.3V438.8z M928.8,622.5H990v61.3h-61.3V622.5z M561.3,622.5h61.3v61.3h-61.3V622.5z M622.5,561.3h61.3v61.3h-61.3V561.3z M683.8,622.5H745v61.3h-61.3V622.5z M806.3,622.5h61.3v61.3h-61.3V622.5z M867.5,561.3h61.3v61.3h-61.3V561.3z M928.8,745H990v61.3h-61.3V745z M561.3,745h61.3v61.3h-61.3V745z M622.5,683.8h61.3V745h-61.3V683.8z M745,683.8h61.3V745H745V683.8z M806.3,745h61.3v61.3h-61.3V745z M867.5,683.8h61.3V745h-61.3V683.8z M928.8,867.5H990v61.3h-61.3V867.5z M622.5,806.3h61.3v61.3h-61.3V806.3z M683.8,867.5H745v61.3h-61.3V867.5z M745,806.3h61.3v61.3H745V806.3z M806.3,867.5h61.3v61.3h-61.3V867.5z M622.5,928.8h61.3V990h-61.3V928.8z M745,928.8h61.3V990H745V928.8z M867.5,928.8h61.3V990h-61.3V928.8z"/></g></g>
</svg>